<?xml version="1.0" standalone="no"?><svg xmlns="http://www.w3.org/2000/svg" viewBox="0 0 1440 320"><path fill="#CD2027" fill-opacity="1" d="M0,0L26.7,5.3C53.3,11,107,21,160,42.7C213.3,64,267,96,320,101.3C373.3,107,427,85,480,64C533.3,43,587,21,640,58.7C693.3,96,747,192,800,234.7C853.3,277,907,267,960,229.3C1013.3,192,1067,128,1120,106.7C1173.3,85,1227,107,1280,138.7C1333.3,171,1387,213,1413,234.7L1440,256L1440,320L1413.3,320C1386.7,320,1333,320,1280,320C1226.7,320,1173,320,1120,320C1066.7,320,1013,320,960,320C906.7,320,853,320,800,320C746.7,320,693,320,640,320C586.7,320,533,320,480,320C426.7,320,373,320,320,320C266.7,320,213,320,160,320C106.7,320,53,320,27,320L0,320Z"></path></svg>