<?xml version="1.0" standalone="no"?><svg xmlns="http://www.w3.org/2000/svg" viewBox="0 0 1440 320"><path fill="#3C4044" fill-opacity="1" d="M0,64L26.7,101.3C53.3,139,107,213,160,234.7C213.3,256,267,224,320,186.7C373.3,149,427,107,480,106.7C533.3,107,587,149,640,192C693.3,235,747,277,800,288C853.3,299,907,277,960,245.3C1013.3,213,1067,171,1120,149.3C1173.3,128,1227,128,1280,112C1333.3,96,1387,64,1413,48L1440,32L1440,320L1413.3,320C1386.7,320,1333,320,1280,320C1226.7,320,1173,320,1120,320C1066.7,320,1013,320,960,320C906.7,320,853,320,800,320C746.7,320,693,320,640,320C586.7,320,533,320,480,320C426.7,320,373,320,320,320C266.7,320,213,320,160,320C106.7,320,53,320,27,320L0,320Z"></path></svg>